<svg xmlns="http://www.w3.org/2000/svg" width="1443" height="371.561" viewBox="0 0 1443 371.561">
  <g id="footer" transform="translate(1.5 1.5)">
    <g id="footer-2" data-name="footer" transform="translate(0 -2236.5)">
      <text id="Contact_Us" data-name="Contact Us" transform="translate(164 2321)" fill="#595959" font-size="14" font-family="Helvetica" opacity="0.8"><tspan x="0" y="0">Contact Us</tspan></text>
      <text id="_651_888_9669" data-name="651 888 9669" transform="translate(140 2388)" fill="#1e1713" font-size="14" font-family="Helvetica" opacity="0.6"><tspan x="0" y="0">651 888 9669</tspan></text>
      <text id="Mon-Fri_8AM-6PM" data-name="Mon-Fri 8AM-6PM" transform="translate(140 2410)" fill="#1e1713" font-size="14" font-family="Helvetica" opacity="0.6"><tspan x="0" y="0">Mon-Fri 8AM-6PM</tspan></text>
      <path id="Line_3" data-name="Line 3" d="M.5,1.5H115.664" transform="translate(140 2352.557)" fill="none" stroke="#00bbd8" stroke-linecap="square" stroke-miterlimit="10" stroke-width="1"/>
      <text id="Company" transform="translate(487 2321)" fill="#595959" font-size="14" font-family="Helvetica" opacity="0.8"><tspan x="0" y="0">Company</tspan></text>
      <text id="Our_process" data-name="Our process" transform="translate(476 2386)" fill="#1e1713" font-size="14" font-family="Helvetica" opacity="0.6"><tspan x="0" y="0">About</tspan><tspan x="0" y="24">Jobs</tspan><tspan x="0" y="48">Find a gent</tspan><tspan x="0" y="72">agents</tspan><tspan x="0" y="96">Partners</tspan><tspan font-family="SegoeUI, Segoe UI"><tspan x="0" y="120"></tspan></tspan></text>
      <text id="Our_process-2" data-name="Our process" transform="translate(712 2387)" fill="#1e1713" font-size="14" font-family="Helvetica" opacity="0.6"><tspan x="0" y="0">Real state ofer</tspan><tspan x="0" y="24">In person with Ai</tspan><tspan x="0" y="48">with agent and Ai</tspan></text>
      <text id="Our_process-3" data-name="Our process" transform="translate(982 2387)" fill="#1e1713" font-size="14" font-family="Helvetica" opacity="0.6"><tspan x="0" y="0">buy </tspan><tspan x="0" y="24">rent</tspan></text>
      <text id="Our_process-4" data-name="Our process" transform="translate(1217 2387)" fill="#1e1713" font-size="14" font-family="Helvetica" opacity="0.6"><tspan x="0" y="0">Blog</tspan><tspan x="0" y="24">Buying guide</tspan><tspan x="0" y="48">Selling guide</tspan><tspan x="0" y="72">FAQs</tspan></text>
      <text id="Media" transform="translate(719 2321)" fill="#595959" font-size="14" font-family="Helvetica" opacity="0.8"><tspan x="0" y="0">sell your home</tspan></text>
      <text id="Media-2" data-name="Media" transform="translate(984 2321)" fill="#595959" font-size="14" font-family="Helvetica" opacity="0.8"><tspan x="0" y="0">find a home</tspan></text>
      <text id="Resource" transform="translate(1225.616 2319)" fill="#595959" font-size="14" font-family="Helvetica" opacity="0.8"><tspan x="0" y="0">Resource</tspan></text>
      <path id="Line_3_Copy_3" data-name="Line 3 Copy 3" d="M.5.25H81.974" transform="translate(1217.5 2353.489)" fill="none" stroke="#00bbd8" stroke-linecap="square" stroke-miterlimit="10" stroke-width="1"/>
      <path id="Line_3_Copy_3-2" data-name="Line 3 Copy 3" d="M.5.25H81.974" transform="translate(982.026 2353.489)" fill="none" stroke="#00bbd8" stroke-linecap="square" stroke-miterlimit="10" stroke-width="1"/>
      <path id="Line_3_Copy_3-3" data-name="Line 3 Copy 3" d="M.5.25H105.8" transform="translate(713 2353.489)" fill="none" stroke="#00bbd8" stroke-linecap="square" stroke-miterlimit="10" stroke-width="1"/>
      <path id="Line_3_Copy_3-4" data-name="Line 3 Copy 3" d="M.5.25h82" transform="translate(475.5 2353.489)" fill="none" stroke="#00bbd8" stroke-linecap="square" stroke-miterlimit="10" stroke-width="1"/>
      <line id="Line_28" data-name="Line 28" x2="1440" transform="translate(0.5 2236.5)" fill="none" stroke="#f3f3f3" stroke-width="3"/>
    </g>
    <g id="footer1" transform="translate(0 -2236.5)">
      <path id="Line_4" data-name="Line 4" d="M0,1H1440" transform="translate(0 2540.335)" fill="none" stroke="#f3f3f3" stroke-linecap="square" stroke-miterlimit="10" stroke-width="3"/>
      <text id="Term_privacy_Cer" data-name="Term &amp; privacy | Cer" transform="translate(1300 2602)" fill="#1e1713" font-size="14" font-family="Helvetica" opacity="0.6"><tspan x="-381.493" y="0" xml:space="preserve">Term &amp; privacy     |     Certificates &amp; awards     |     My account</tspan></text>
      <g id="logo_twitter" data-name="logo/twitter" transform="translate(140 2591.275)">
        <path id="Shape" d="M16.867,1.581a6.239,6.239,0,0,1-2,.527A2.98,2.98,0,0,0,16.34.211a6.916,6.916,0,0,1-2.214.843A3.681,3.681,0,0,0,11.6,0,3.49,3.49,0,0,0,8.223,3.479a1.563,1.563,0,0,0,.105.738A9.7,9.7,0,0,1,1.16.633,3.23,3.23,0,0,0,.738,2.425,3.46,3.46,0,0,0,2.319,5.271,4.418,4.418,0,0,1,.738,4.849h0A3.4,3.4,0,0,0,3.479,8.223a2.919,2.919,0,0,1-.949.105A1.337,1.337,0,0,1,1.9,8.223a3.416,3.416,0,0,0,3.268,2.425A6.7,6.7,0,0,1,.843,12.123H0A10.285,10.285,0,0,0,5.271,13.7a9.758,9.758,0,0,0,9.8-9.8V3.479A6.129,6.129,0,0,0,16.867,1.581Z" fill="#111"/>
      </g>
      <path id="Shape-2" data-name="Shape" d="M8.5,13a41.583,41.583,0,0,1-5.95-.433,2.646,2.646,0,0,1-2.338-2.6A29.174,29.174,0,0,1,0,6.5,29.2,29.2,0,0,1,.212,3.033,2.57,2.57,0,0,1,2.55.433a41.1,41.1,0,0,1,11.9,0,2.649,2.649,0,0,1,2.338,2.6A29.2,29.2,0,0,1,17,6.5a29.174,29.174,0,0,1-.212,3.466,2.734,2.734,0,0,1-2.338,2.6A41.583,41.583,0,0,1,8.5,13ZM6.375,3.25v6.5L11.687,6.5Z" transform="translate(177.691 2592)" fill="#111"/>
      <path id="Shape-3" data-name="Shape" d="M16.234,16.867H.738A.708.708,0,0,1,0,16.234V.738A.722.722,0,0,1,.738,0H16.129a.891.891,0,0,1,.843.738V16.129A.722.722,0,0,1,16.234,16.867ZM6.536,6.325v8.117h2.53V10.436c0-.982.168-2.108,1.475-2.108,1.265,0,1.265,1.169,1.265,2.108v3.9h2.425V9.909c0-1.971-.358-3.8-2.952-3.8A2.572,2.572,0,0,0,8.96,7.379V6.325H6.536Zm-4.006,0h0v8.011H5.06V6.325H2.53ZM3.8,2.319A1.444,1.444,0,0,0,2.319,3.8,1.516,1.516,0,0,0,3.8,5.271,1.685,1.685,0,0,0,5.271,3.8,1.443,1.443,0,0,0,3.8,2.319Z" transform="translate(215.9 2589.694)" fill="#111"/>
    </g>
    <g id="Group_340" data-name="Group 340" transform="translate(616.137 -363.782)">
      <path id="Path_4580" data-name="Path 4580" d="M337.569,435.272a9.271,9.271,0,0,0,4.662,2.3,8.755,8.755,0,0,0,3.759-.035,5.218,5.218,0,0,0,.842-.293,2.538,2.538,0,0,0,.411-4.4,5.886,5.886,0,0,0-1.414-.686c-1.092-.385-2.214-.665-3.335-.942a19.753,19.753,0,0,1-2.354-.741,6.424,6.424,0,0,1-1.262-.644,3.634,3.634,0,0,1-1.691-2.778,5.053,5.053,0,0,1,3.539-5.657,9.606,9.606,0,0,1,8.945,1.35c.34.242.337.251.126.619-.287.5-.578,1-.891,1.541a5.866,5.866,0,0,0-1.668-1.131,8.016,8.016,0,0,0-5.382-.569,3.386,3.386,0,0,0-.968.4,2.867,2.867,0,0,0-1.1,3.467,2.306,2.306,0,0,0,1.022,1.094,8.52,8.52,0,0,0,2.019.734c1.42.383,2.871.649,4.263,1.139a8.5,8.5,0,0,1,1.757.821,4.113,4.113,0,0,1,2,3.5,4.766,4.766,0,0,1-3.285,4.968,7.692,7.692,0,0,1-2.095.481,12.125,12.125,0,0,1-8.082-1.872c-.3-.2-.739-.363-.835-.684s.279-.643.443-.965S337.351,435.652,337.569,435.272Z" transform="translate(-168.088 -0.379)" fill="#fff"/>
      <path id="Path_4581" data-name="Path 4581" d="M105.581,430.648v8.629c0,.123-.008.246,0,.368.016.216-.065.328-.295.326-.614-.005-1.228,0-1.842,0-.17,0-.259-.075-.253-.254,0-.123,0-.245,0-.368q0-3.578,0-7.156c0-.088,0-.175,0-.263-.006-.448-.006-.453-.467-.453q-3.473,0-6.946,0c-.123,0-.246,0-.369,0-.4-.011-.4-.011-.406-.42q-.01-.657,0-1.315c.005-.36.011-.361.391-.372.123,0,.245,0,.368,0H102.5c.14,0,.281-.007.421,0,.2.011.284-.082.273-.279-.007-.122,0-.245,0-.368V421.98c0-.105,0-.21,0-.316.01-.38.011-.387.37-.391q.815-.009,1.631,0c.374,0,.382.01.385.377.006.789,0,1.578,0,2.368Z" transform="translate(-8.67 -0.651)" fill="#fff"/>
      <path id="Path_4582" data-name="Path 4582" d="M285.809,421.284c.685,0,1.383,0,2.082,0,.156,0,.22.075.215.225,0,.088,0,.175,0,.263q0,4.579,0,9.159a12.847,12.847,0,0,1-.658,4.138,6.913,6.913,0,0,1-5.013,4.8c-1.066.278-1.069.272-1.067-.822A2.967,2.967,0,0,1,281.4,438c.136-.339.606-.248.915-.389a5.056,5.056,0,0,0,2.3-2.006,8.109,8.109,0,0,0,1.045-3.5c.062-.646.089-1.294.087-1.944q-.009-4.106,0-8.212A1.821,1.821,0,0,1,285.809,421.284Z" transform="translate(-131.66 -0.66)" fill="#fff"/>
      <path id="Path_4583" data-name="Path 4583" d="M256.774,427.2c.033,1.406-.066,3.109.064,4.809a8.321,8.321,0,0,0,.775,3.093,4.778,4.778,0,0,0,3.234,2.706.364.364,0,0,1,.329.435c-.018.473,0,.947-.006,1.421,0,.372-.027.395-.391.336a6.942,6.942,0,0,1-4.325-2.385,8.437,8.437,0,0,1-1.815-4.2,15.854,15.854,0,0,1-.227-2.67q.008-4.474,0-8.948c0-.105,0-.21,0-.315,0-.159.085-.211.231-.211.632,0,1.263,0,1.895,0,.2,0,.232.106.232.264,0,.474,0,.948,0,1.421Z" transform="translate(-113.887 -0.656)" fill="#fff"/>
      <path id="Path_4584" data-name="Path 4584" d="M84.159,421.277a1.236,1.236,0,0,1,.068.607q0,8.738,0,17.475c0,.07,0,.14,0,.21-.011.394-.012.4-.419.4-.544.005-1.088,0-1.632,0-.215,0-.332-.072-.312-.3.008-.1,0-.21,0-.315q0-8.738,0-17.475c0-.07,0-.14,0-.21.01-.381.01-.388.368-.391C82.881,421.273,83.528,421.277,84.159,421.277Z" transform="translate(0 -0.656)" fill="#fff"/>
      <path id="Path_4585" data-name="Path 4585" d="M420.912,421.278h5.631c.123,0,.246,0,.369,0,.143,0,.238.046.238.207q0,.842,0,1.684c0,.157-.084.216-.232.213s-.28,0-.421,0h-8.736a3.492,3.492,0,0,1-.368,0c-.253-.026-.336.078-.332.329.011.912,0,1.824,0,2.737,0,.123-.006.246,0,.368.009.176-.065.255-.246.254q-.947-.006-1.894,0c-.183,0-.245-.088-.243-.259,0-.4,0-.807,0-1.21,0-1.3,0-2.6,0-3.895,0-.422.008-.428.441-.428Q418.017,421.276,420.912,421.278Z" transform="translate(-219.669 -0.657)" fill="#fff"/>
      <path id="Path_4586" data-name="Path 4586" d="M494.74,421.272h5.628c.123,0,.245,0,.368,0,.149,0,.228.061.228.216q0,.842,0,1.683c0,.164-.1.207-.238.2s-.281,0-.421,0h-8.732c-.105,0-.21,0-.315,0-.372.01-.38.011-.382.378-.005.894,0,1.788,0,2.683,0,.123-.005.245,0,.368.007.171-.055.258-.24.257-.631,0-1.263,0-1.894,0-.152,0-.226-.063-.226-.215,0-.105,0-.21,0-.316q0-2.367,0-4.734c0-.626,0-.525.549-.526Q491.9,421.268,494.74,421.272Z" transform="translate(-268.4 -0.65)" fill="#fff"/>
      <path id="Path_4587" data-name="Path 4587" d="M425.822,447.2a2.045,2.045,0,0,1-.679.055q-3.658,0-7.316,0h-.21c-.6.005-.551-.046-.553.581,0,1.018,0,2.035,0,3.053,0,.449-.005.452-.465.455-.509,0-1.018,0-1.526,0-.378,0-.385-.009-.39-.373-.007-.439,0-.877,0-1.316q0-1.921,0-3.842c0-.517,0-.521.52-.522q3.974,0,7.947,0c.772,0,1.544.007,2.316,0,.266,0,.377.078.365.361C425.808,446.152,425.822,446.66,425.822,447.2Z" transform="translate(-219.667 -16.502)" fill="#fff"/>
      <path id="Path_4588" data-name="Path 4588" d="M494.131,445.3h4.844c.14,0,.281,0,.421,0s.235.056.235.214q0,.763,0,1.526c0,.154-.078.219-.226.217s-.281,0-.421,0q-3.738,0-7.476,0c-.693,0-.633-.064-.635.61,0,1.018,0,2.035,0,3.053,0,.418-.007.421-.44.424q-.737.005-1.474,0c-.438,0-.445-.006-.446-.42q-.005-2.606,0-5.212c0-.406.01-.414.407-.417.842-.006,1.685,0,2.527,0Z" transform="translate(-268.399 -16.509)" fill="#fff"/>
      <path id="Path_4589" data-name="Path 4589" d="M421.033,472.183h-5.686c-.14,0-.281,0-.421,0-.176,0-.247-.1-.246-.266q0-.79,0-1.579a.225.225,0,0,1,.253-.259c.123,0,.245,0,.369,0h11.476c.105,0,.211.006.316,0,.23-.012.3.1.3.321-.011.474-.016.948,0,1.421.01.272-.083.381-.358.372-.4-.013-.807,0-1.211,0Z" transform="translate(-219.669 -32.862)" fill="#fff"/>
      <path id="Path_4590" data-name="Path 4590" d="M494.8,470.065h5.679c.123,0,.246.009.368,0,.243-.019.349.071.341.329-.015.49-.012.981,0,1.472,0,.226-.086.321-.307.31-.122-.006-.245,0-.368,0H489.154c-.105,0-.211-.008-.315,0-.249.021-.348-.093-.344-.338.007-.473.014-.947,0-1.419-.01-.279.1-.362.366-.359,1.034.011,2.068,0,3.1,0Z" transform="translate(-268.387 -32.855)" fill="#fff"/>
      <path id="Path_4591" data-name="Path 4591" d="M182,434.206c0,1.748,0,3.5,0,5.246,0,.8-.2,1.056-.974,1.1a10.862,10.862,0,0,1-6.434-1.465c-.389-.235-.457-.4-.129-.767.593-.662.57-.685,1.34-.258a9.656,9.656,0,0,0,4.219,1.054c.417.025.515-.159.513-.539q-.015-4.605,0-9.21a.883.883,0,0,0-.313-.687q-3.3-3.167-6.586-6.345c-.239-.232-.418-.25-.663-.016q-3.378,3.215-6.769,6.415a.883.883,0,0,0-.264.711q.006,4.544,0,9.089c0,.333.012.611.469.585a8.585,8.585,0,0,0,5.52-1.939c.323-.288.386-.459.1-.826a16.425,16.425,0,0,1-2.329-3.7,4.016,4.016,0,0,1,1.173-4.731,3.742,3.742,0,0,1,4.588-.106,3.864,3.864,0,0,1,1.381,4.659c-1.221,2.708-2.755,5.236-5.383,6.832a10.139,10.139,0,0,1-6,1.249c-.765-.044-.991-.325-.992-1.095q-.009-5.307-.013-10.613a1.176,1.176,0,0,1,.4-.913q3.885-3.655,7.763-7.318c.5-.466.926-.447,1.488.089q2.868,2.734,5.716,5.488c.586.564,1.156,1.145,1.761,1.688a1.247,1.247,0,0,1,.427,1.02C182,430.668,182,432.437,182,434.206Zm-6.354-3.067a2.448,2.448,0,0,0-3.138-2.45,2.5,2.5,0,0,0-1.549,3.1,13.576,13.576,0,0,0,2.125,3.531c.216.3.333.059.448-.1a15.908,15.908,0,0,0,1.736-2.784A2.8,2.8,0,0,0,175.651,431.139Z" transform="translate(-54.513)" fill="#fff"/>
    </g>
  </g>
</svg>
