<svg xmlns="http://www.w3.org/2000/svg" width="16.972" height="16.867" viewBox="0 0 16.972 16.867">
  <path id="Shape" d="M16.234,16.867H.738A.708.708,0,0,1,0,16.234V.738A.722.722,0,0,1,.738,0H16.129a.891.891,0,0,1,.843.738V16.129A.722.722,0,0,1,16.234,16.867ZM6.536,6.325v8.117h2.53V10.436c0-.982.168-2.108,1.475-2.108,1.265,0,1.265,1.169,1.265,2.108v3.9h2.425V9.909c0-1.971-.358-3.8-2.952-3.8A2.572,2.572,0,0,0,8.96,7.379V6.325H6.536Zm-4.006,0h0v8.011H5.06V6.325H2.53ZM3.8,2.319A1.444,1.444,0,0,0,2.319,3.8,1.516,1.516,0,0,0,3.8,5.271,1.685,1.685,0,0,0,5.271,3.8,1.443,1.443,0,0,0,3.8,2.319Z" fill="#111"/>
</svg>
