<svg id="logo_twitter" data-name="logo/twitter" xmlns="http://www.w3.org/2000/svg" width="16.867" height="13.704" viewBox="0 0 16.867 13.704">
  <path id="Shape" d="M16.867,1.581a6.239,6.239,0,0,1-2,.527A2.98,2.98,0,0,0,16.34.211a6.916,6.916,0,0,1-2.214.843A3.681,3.681,0,0,0,11.6,0,3.49,3.49,0,0,0,8.223,3.479a1.563,1.563,0,0,0,.105.738A9.7,9.7,0,0,1,1.16.633,3.23,3.23,0,0,0,.738,2.425,3.46,3.46,0,0,0,2.319,5.271,4.418,4.418,0,0,1,.738,4.849h0A3.4,3.4,0,0,0,3.479,8.223a2.919,2.919,0,0,1-.949.105A1.337,1.337,0,0,1,1.9,8.223a3.416,3.416,0,0,0,3.268,2.425A6.7,6.7,0,0,1,.843,12.123H0A10.285,10.285,0,0,0,5.271,13.7a9.758,9.758,0,0,0,9.8-9.8V3.479A6.129,6.129,0,0,0,16.867,1.581Z" fill="#111"/>
</svg>
