<svg xmlns="http://www.w3.org/2000/svg" width="16.867" height="16.867" viewBox="0 0 16.867 16.867">
  <path id="Shape" d="M8.433,0A8.458,8.458,0,0,0,0,8.433a8.262,8.262,0,0,0,5.376,7.8,9.324,9.324,0,0,1,0-2.425c.105-.633.949-4.217.949-4.217a2.8,2.8,0,0,1-.211-1.16c0-1.16.738-2.108,1.581-2.108A1.025,1.025,0,0,1,8.75,7.485a12.629,12.629,0,0,1-.738,2.846,1.186,1.186,0,0,0,1.265,1.476c1.476,0,2.635-1.581,2.635-3.9A3.379,3.379,0,0,0,8.433,4.428a3.626,3.626,0,0,0-3.8,3.69,3.391,3.391,0,0,0,.633,1.9v.422a5.347,5.347,0,0,0-.211.949c0,.105-.105.211-.316.105A3.77,3.77,0,0,1,3.057,8.223c0-2.635,1.9-5.06,5.587-5.06A4.915,4.915,0,0,1,13.81,8.012c0,2.952-1.792,5.271-4.428,5.271a2.107,2.107,0,0,1-1.9-.949s-.422,1.581-.527,2A10.8,10.8,0,0,1,5.9,16.551a10.4,10.4,0,0,0,2.53.316A8.433,8.433,0,1,0,8.433,0Z" fill="#111"/>
</svg>
