<svg xmlns="http://www.w3.org/2000/svg" width="43.127" height="43" viewBox="0 0 43.127 43">
  <g id="Group_3960" data-name="Group 3960" transform="translate(-528 -2201)">
    <circle id="Ellipse_162" data-name="Ellipse 162" cx="20" cy="20" r="20" transform="translate(531.127 2204)" fill="#d1f2f7"/>
    <g id="_1740364" data-name="1740364" transform="translate(528 2201)">
      <path id="Path_11932" data-name="Path 11932" d="M350.65,316.835l-.436-1.284A12.186,12.186,0,0,0,358.495,304h1.355a13.542,13.542,0,0,1-9.2,12.835Zm0,0" transform="translate(-326.432 -278.258)" fill="#7b7b7b"/>
      <path id="Path_11937" data-name="Path 11937" d="M305.44,34.343a8.39,8.39,0,0,0,5.977,3.068l.056-1.353a7.02,7.02,0,0,1-5.055-2.652c-.934-.974-1.391-1.405-2.424-1.406v1.355c.4,0,.5,0,1.448.988Zm0,0" transform="translate(-284.124 -29.29)" fill="#969696"/>
      <path id="Path_11938" data-name="Path 11938" d="M408.835,76l-.542-1.242a5.271,5.271,0,0,1-1.39.382l.185,1.342A6.593,6.593,0,0,0,408.835,76Zm0,0" transform="translate(-378.32 -68.431)" fill="#969696"/>
      <path id="Path_11939" data-name="Path 11939" d="M138.892,13.465A19.835,19.835,0,0,0,143.358.928V0h-.677a4.017,4.017,0,0,0-3.794,2.351c-.623.995-1.072,1.714-2.644,1.714-1.659,0-2.47-.845-3.408-1.824a5.409,5.409,0,0,0-8.769,0c-.936.978-1.746,1.823-3.4,1.823-1.572,0-2.021-.719-2.643-1.714A4.015,4.015,0,0,0,114.229,0h-.677V.928a19.835,19.835,0,0,0,4.466,12.536,16.345,16.345,0,0,0-5.8,11.7l1.354.052a15.042,15.042,0,0,1,5.642-10.989H137.7A14.834,14.834,0,1,1,118.788,37.08l-.88,1.03a16.185,16.185,0,1,0,20.985-24.645Zm-20.638-1.948h20.4c-.326.465-.671.918-1.041,1.355H119.3c-.37-.437-.716-.889-1.042-1.355Zm-1.383-8.448a4.015,4.015,0,0,0,3.792,2.351,5.638,5.638,0,0,0,4.382-2.241c.938-.978,1.747-1.824,3.4-1.824s2.469.845,3.407,1.824a5.643,5.643,0,0,0,4.386,2.241,4.017,4.017,0,0,0,3.793-2.351c.522-.833.921-1.473,1.962-1.659a18.477,18.477,0,0,1-2.48,8.751H117.392a18.477,18.477,0,0,1-2.479-8.751c1.039.186,1.439.826,1.959,1.659Zm0,0" transform="translate(-108.586 0)" fill="#7b7b7b"/>
      <path id="Path_11940" data-name="Path 11940" d="M9.939,307.878a9.939,9.939,0,1,1,9.939-9.939A9.95,9.95,0,0,1,9.939,307.878Zm0,0" transform="translate(0 -267.346)" fill="#00bbd8"/>
    </g>
    <text id="_" data-name="$" transform="translate(538.24 2236.912)" fill="#fff" font-size="14" font-family="ArialMT, Arial" letter-spacing="0.005em"><tspan x="-3.893" y="0">$</tspan></text>
  </g>
</svg>
