<svg xmlns="http://www.w3.org/2000/svg" width="58.956" height="53.907" viewBox="0 0 58.956 53.907">
  <g id="Group_2534" data-name="Group 2534" transform="translate(-1308.575 -1247.228)">
    <g id="_222222" data-name="222222" transform="translate(1308.575 1247.228)">
      <path id="Path_12011" data-name="Path 12011" d="M76.08,32.477a23.1,23.1,0,1,0,23.1,23.1A23.1,23.1,0,0,0,76.08,32.477Zm0,41.393A18.29,18.29,0,1,1,94.37,55.58,18.29,18.29,0,0,1,76.08,73.87Zm0,0" transform="translate(-46.602 -28.626)" fill="#8fdeea"/>
      <path id="Path_12012" data-name="Path 12012" d="M230.388,2.4a24.982,24.982,0,0,1,24.87,22.246l.22,1.992,4.387-4.386L258.5,20.892l-1.616,1.615A26.905,26.905,0,0,0,230.388.477c-.666,0-1.338.024-2,.072l.141,1.921c.612-.045,1.235-.067,1.855-.067Zm0,0" transform="translate(-200.91 -0.477)" fill="#7b7b7b"/>
      <path id="Path_12013" data-name="Path 12013" d="M29.478,255.282A24.983,24.983,0,0,1,4.607,233.035l-.22-1.992L0,235.43l1.361,1.361,1.616-1.616a26.906,26.906,0,0,0,26.5,22.031c.668,0,1.341-.024,2-.073l-.142-1.92c-.608.046-1.232.068-1.854.068Zm0,0" transform="translate(0 -203.299)" fill="#7b7b7b"/>
      <path id="Path_12014" data-name="Path 12014" d="M104.23,64.477a19.253,19.253,0,1,0,19.253,19.253A19.275,19.275,0,0,0,104.23,64.477Zm.963,36.531V96.243h-1.925v4.764A17.322,17.322,0,0,1,86.951,84.692h4.764V82.767H86.951a17.323,17.323,0,0,1,16.316-16.316v4.764h1.925V66.451a17.322,17.322,0,0,1,16.315,16.316h-4.764v1.925h4.764A17.321,17.321,0,0,1,105.192,101.007Zm0,0" transform="translate(-74.752 -56.776)" fill="#7b7b7b"/>
      <path id="Path_12015" data-name="Path 12015" d="M224.828,144.355v-7.878H222.9v7.878a2.881,2.881,0,1,0,3.673,3.673H230.6V146.1h-4.028A2.883,2.883,0,0,0,224.828,144.355Zm-.963,3.673a.963.963,0,1,1,.963-.963A.964.964,0,0,1,223.865,148.028Zm0,0" transform="translate(-194.387 -120.112)" fill="#7b7b7b"/>
    </g>
  </g>
</svg>
