<svg xmlns="http://www.w3.org/2000/svg" width="21.854" height="40.577" viewBox="0 0 21.854 40.577"><path d="M20.289 3.131a1.565 1.565 0 1 1 1.565-1.566 1.566 1.566 0 0 1-1.565 1.566zm1.565 7.8a1.565 1.565 0 1 0-1.565 1.566 1.565 1.565 0 0 0 1.565-1.57zm0 9.362a1.565 1.565 0 1 0-1.565 1.565 1.565 1.565 0 0 0 1.565-1.569zm0 9.362a1.565 1.565 0 1 0-1.565 1.565 1.565 1.565 0 0 0 1.565-1.57zm0 9.361a1.565 1.565 0 1 0-1.565 1.565 1.565 1.565 0 0 0 1.565-1.57zM12.492 1.57a1.565 1.565 0 1 0-1.568 1.561 1.565 1.565 0 0 0 1.568-1.566zm0 9.362a1.565 1.565 0 1 0-1.565 1.566 1.565 1.565 0 0 0 1.565-1.571zm0 9.362a1.565 1.565 0 1 0-1.565 1.565 1.565 1.565 0 0 0 1.565-1.57zm0 9.362a1.565 1.565 0 1 0-1.565 1.565 1.565 1.565 0 0 0 1.565-1.571zm0 9.361a1.565 1.565 0 1 0-1.568 1.564 1.565 1.565 0 0 0 1.568-1.57zM3.131 1.571a1.565 1.565 0 1 0-1.566 1.566 1.565 1.565 0 0 0 1.566-1.572zm0 9.362a1.565 1.565 0 1 0-1.566 1.566 1.565 1.565 0 0 0 1.566-1.572zm0 9.362a1.565 1.565 0 1 0-1.566 1.565 1.565 1.565 0 0 0 1.566-1.571zm0 9.362a1.565 1.565 0 1 0-1.566 1.565 1.565 1.565 0 0 0 1.566-1.572zm0 9.361a1.565 1.565 0 1 0-1.566 1.563 1.565 1.565 0 0 0 1.566-1.57z" fill="#c7c7c7"></path></svg>