<svg xmlns="http://www.w3.org/2000/svg" width="36.178" height="36.178" viewBox="0 0 36.178 36.178">
  <g id="Group_2929" data-name="Group 2929" transform="translate(0.5 0.5)">
    <g id="Group_53" data-name="Group 53" transform="translate(0 0)">
      <ellipse id="Oval-Copy-69_Copy_7" data-name="Oval-Copy-69 Copy 7" cx="17.589" cy="17.589" rx="17.589" ry="17.589" fill="none" stroke="#7b7b7b" stroke-miterlimit="10" stroke-width="1"/>
      <path id="Path_89" data-name="Path 89" d="M3.272,0a.7.7,0,0,0,.343.26Q6.545,1.316,6.545,2.045T3.678,11.77c-.255.8-1.21,2.488-1.633,2.547-.6.084-1.725.481-2.045,0" transform="translate(0 6.545)" fill="none" stroke="#7b7b7b" stroke-miterlimit="10" stroke-width="1"/>
      <path id="Path_90" data-name="Path 90" d="M0,.659,6.136.25" transform="translate(6.545 9.772)" fill="none" stroke="#7b7b7b" stroke-linecap="round" stroke-miterlimit="10" stroke-width="1"/>
      <path id="Path_91" data-name="Path 91" d="M0,12l10.972,7.945A14.517,14.517,0,0,0,13.5,21.411a2.33,2.33,0,0,0,1.636-.818s2.454.818,2.863-1.227c.215-1.075,1.514-.2,2.454-.409.848-.192,1.338-1.517,1.636-1.636a4.3,4.3,0,0,1,1.227-.409c.271-.068,1.846-.632.818-2.045a38.686,38.686,0,0,0-4.09-4.5c-2.869-2.76-5.437-4.543-5.727-4.5a4.6,4.6,0,0,0-3.272,1.227C9.99,8.322,8.181,9.549,6.954,7.5s4.5-6.545,4.5-6.545,3.681-2.045,6.954.409,4.909,2.045,4.909,2.045" transform="translate(3.272 8.152)" fill="none" stroke="#7b7b7b" stroke-miterlimit="10" stroke-width="1"/>
      <path id="Path_92" data-name="Path 92" d="M0,0,3.272,3.272l.818.818" transform="translate(13.908 24.543)" fill="none" stroke="#7b7b7b" stroke-linecap="round" stroke-miterlimit="10" stroke-width="1"/>
      <path id="Path_92_Copy_2" data-name="Path 92 Copy 2" d="M0,0,3.839,3.839l.251.251" transform="translate(17.18 22.907)" fill="none" stroke="#7b7b7b" stroke-linecap="round" stroke-miterlimit="10" stroke-width="1"/>
      <path id="Path_92_Copy" data-name="Path 92 Copy" d="M0,0,5.318,5.318" transform="translate(19.634 20.452)" fill="none" stroke="#7b7b7b" stroke-linecap="round" stroke-miterlimit="10" stroke-width="1"/>
      <path id="Path_93" data-name="Path 93" d="M0,1.227,2.045,0" transform="translate(27.815 22.089)" fill="none" stroke="#7b7b7b" stroke-miterlimit="10" stroke-width="1"/>
      <path id="Path_94" data-name="Path 94" d="M5.824,0,1.62,1.5a1.636,1.636,0,0,0-1,2.073L4.256,14.143a1.636,1.636,0,0,0,1.385,1.1l3.047.3" transform="translate(25.264 7.363)" fill="none" stroke="#7b7b7b" stroke-linecap="round" stroke-miterlimit="10" stroke-width="1"/>
    </g>
  </g>
</svg>
