<svg xmlns="http://www.w3.org/2000/svg" width="29.382" height="29.382" viewBox="0 0 29.382 29.382">
  <g id="Group_73_Copy" data-name="Group 73 Copy" transform="translate(0.5 0.5)">
    <g id="Group_72" data-name="Group 72">
      <g id="Group_71" data-name="Group 71">
        <ellipse id="Oval-Copy-69_Copy_8" data-name="Oval-Copy-69 Copy 8" cx="14.191" cy="14.191" rx="14.191" ry="14.191" fill="none" stroke="#7b7b7b" stroke-miterlimit="10" stroke-width="1"/>
        <path id="Path_105" data-name="Path 105" d="M.375,0,.54,27.722" transform="translate(13.073 0)" fill="none" stroke="#7b7b7b" stroke-miterlimit="10" stroke-width="1"/>
        <path id="Path_106" data-name="Path 106" d="M0,0S1.971,1.5,2.805,1.98a2.805,2.805,0,0,0,2.145.33" transform="translate(13.861 11.881)" fill="none" stroke="#7b7b7b" stroke-linecap="round" stroke-miterlimit="10" stroke-width="1"/>
        <path id="Path_107" data-name="Path 107" d="M0,2.31v3.3l6,2.7a.66.66,0,0,0,.874-.334L8.962,3.267A.66.66,0,0,0,8.6,2.386L2.64,0,0,1.98" transform="translate(17.161 11.881)" fill="none" stroke="#7b7b7b" stroke-linecap="round" stroke-miterlimit="10" stroke-width="1"/>
        <path id="Path_109" data-name="Path 109" d="M4.29,6.6V.66A.66.66,0,0,0,3.63,0H.66A.66.66,0,0,0,0,.66V4.29" transform="translate(5.28 20.461)" fill="none" stroke="#7b7b7b" stroke-miterlimit="10" stroke-width="1"/>
        <path id="Path_110" data-name="Path 110" d="M2.31,0h.66a.66.66,0,0,1,.66.66v3.3a.66.66,0,0,1-.66.66H0" transform="translate(0.66 5.28)" fill="none" stroke="#7b7b7b" stroke-miterlimit="10" stroke-width="1"/>
        <path id="Path_110_Copy_3" data-name="Path 110 Copy 3" d="M2.112,0H4.29c-.3,0,0,.3,0,.66v3.3a.66.66,0,0,1-.66.66H.66A.66.66,0,0,1,0,3.96V.66A.66.66,0,0,1,.66,0Z" transform="translate(7.26 5.28)" fill="none" stroke="#7b7b7b" stroke-miterlimit="10" stroke-width="1"/>
        <path id="Path_110_Copy" data-name="Path 110 Copy" d="M0,0H3.63a.66.66,0,0,1,.66.66V3.3a.66.66,0,0,1-.66.66H0" transform="translate(0 12.541)" fill="none" stroke="#7b7b7b" stroke-miterlimit="10" stroke-width="1"/>
        <path id="Path_110_Copy_2" data-name="Path 110 Copy 2" d="M0,.66A.66.66,0,0,1,.66,0H3.63a.66.66,0,0,1,.66.66V3.3a.66.66,0,0,1-.66.66H.66A.66.66,0,0,1,0,3.3Z" transform="translate(7.26 12.541)" fill="none" stroke="#7b7b7b" stroke-miterlimit="10" stroke-width="1"/>
      </g>
    </g>
  </g>
</svg>
