<svg xmlns="http://www.w3.org/2000/svg" width="36.178" height="36.178" viewBox="0 0 36.178 36.178">
  <g id="Group_3635" data-name="Group 3635" transform="translate(0.5 0.5)">
    <g id="Group_65" data-name="Group 65" transform="translate(0 0)">
      <ellipse id="Oval-Copy-69_Copy_16" data-name="Oval-Copy-69 Copy 16" cx="17.589" cy="17.589" rx="17.589" ry="17.589" fill="none" stroke="#595959" stroke-miterlimit="10" stroke-width="1"/>
      <path id="Path_14_Copy_2" data-name="Path 14 Copy 2" d="M0,0H2.426A2.749,2.749,0,0,1,5.175,2.749v7.886" transform="translate(0.818 19.634)" fill="none" stroke="#595959" stroke-linecap="round" stroke-miterlimit="10" stroke-width="1"/>
      <path id="Path_16" data-name="Path 16" d="M16.441,5.654C15.371,4.955,8.22,0,8.22,0L0,5.654v8.1" transform="translate(9.817 7.363)" fill="none" stroke="#595959" stroke-linecap="round" stroke-linejoin="round" stroke-miterlimit="10" stroke-width="1"/>
      <path id="Path_20" data-name="Path 20" d="M0,6.282V1.374A1.374,1.374,0,0,1,1.374,0H4.145A1.374,1.374,0,0,1,5.52,1.374V7.687" transform="translate(15.544 17.18)" fill="none" stroke="#595959" stroke-linecap="round" stroke-miterlimit="10" stroke-width="1"/>
      <path id="Path_21" data-name="Path 21" d="M1.367.3V6.259" transform="translate(25.93 14.672)" fill="none" stroke="#595959" stroke-linecap="round" stroke-linejoin="round" stroke-miterlimit="10" stroke-width="1"/>
      <path id="Path_124_Copy" data-name="Path 124 Copy" d="M0,0H4.5C5.727,0,6.954,2.045,8.59,2.454a22.024,22.024,0,0,0,4.5.409H13.5" transform="translate(5.727 21.27)" fill="none" stroke="#595959" stroke-linecap="round" stroke-miterlimit="10" stroke-width="1"/>
      <path id="Path_125_Copy" data-name="Path 125 Copy" d="M4.306,3.272s5.318.818,7.363.409Q13.6,3.3,18.793.367L19.441,0a6,6,0,0,1,.8.147q1.147.393.832,1.762c-.18.778-1.2,1.26-3.272,2.591-1.074.69-4.5,2.863-4.5,2.863S11.669,8.59,6.76,7.772C2.485,7.059,1.313,5.726,0,5.394" transform="translate(6.545 22.907)" fill="none" stroke="#595959" stroke-linecap="round" stroke-miterlimit="10" stroke-width="1"/>
    </g>
  </g>
</svg>
