<svg id="Group_3168" data-name="Group 3168" xmlns="http://www.w3.org/2000/svg" width="23.768" height="35.211" viewBox="0 0 23.768 35.211">
  <path id="person" d="M80.2,10.893V7.886A7.9,7.9,0,0,1,88.086,0h3.668A7.9,7.9,0,0,1,99.64,7.886v5.5a.587.587,0,0,1-1.174,0v-5.5a6.72,6.72,0,0,0-6.712-6.712H88.086a6.72,6.72,0,0,0-6.712,6.712v3.008a.587.587,0,0,1-1.174,0ZM95.71,25.1a2.438,2.438,0,0,1-2.1-1.177.587.587,0,0,0-1,.61,3.6,3.6,0,0,0,3.1,1.741,4.881,4.881,0,0,1,4.884,4.883v3.467a.587.587,0,0,0,1.174,0V31.158A6.054,6.054,0,0,0,95.71,25.1Zm-2.957,1.712a4.452,4.452,0,0,1-6.7-1.135,3.607,3.607,0,0,0,1.618-2.735,7.845,7.845,0,0,0,10.062-7.485c0-.04,0-4.054,0-4.094a.586.586,0,0,0-.365-.538,5.284,5.284,0,0,1-3.491-3.121.587.587,0,0,0-1.012-.139A14.324,14.324,0,0,1,82.01,13.2a.587.587,0,1,0,.047,1.173A15.5,15.5,0,0,0,93.208,9.006,6.386,6.386,0,0,0,96.559,11.8v3.618a6.676,6.676,0,0,1-13.288.92.587.587,0,0,0-1.163.16,7.849,7.849,0,0,0,4.4,6.006v.154A2.447,2.447,0,0,1,84.056,25.1,6.053,6.053,0,0,0,78,31.158v3.467a.587.587,0,0,0,1.174,0V31.158a4.881,4.881,0,0,1,4.884-4.883,3.654,3.654,0,0,0,.917-.117,5.626,5.626,0,0,0,8.534,1.553.587.587,0,0,0-.756-.9Z" transform="translate(-77.999)" fill="#7b7b7b"/>
</svg>
