<svg xmlns="http://www.w3.org/2000/svg" xmlns:xlink="http://www.w3.org/1999/xlink" width="14" height="17" viewBox="0 0 14 17">
  <defs>
    <clipPath id="clip-path">
      <path id="Mask" d="M4.375,15.222v-.011h5.25v.011C9.625,16.2,8.45,17,7,17S4.375,16.2,4.375,15.222Zm-3.4-.906a.978.978,0,0,1-.86-.5.923.923,0,0,1,.056-.974l1.925-2.748V6.664A4.805,4.805,0,0,1,6.038,1.99V.934a.962.962,0,0,1,1.924,0V1.99a4.8,4.8,0,0,1,3.944,4.674v3.428l1.926,2.748a.923.923,0,0,1,.055.974.978.978,0,0,1-.86.5Z" transform="translate(0 0.493)" fill="#fff"/>
    </clipPath>
  </defs>
  <g id="UI_System_icons_Bell" data-name="UI/System/icons/Bell" transform="translate(0 -2.494)">
    <g id="UI_System_Color_Green01" data-name="UI/System/Color/Green01" transform="translate(0 2)">
      <path id="Mask-2" data-name="Mask" d="M4.375,15.222v-.011h5.25v.011C9.625,16.2,8.45,17,7,17S4.375,16.2,4.375,15.222Zm-3.4-.906a.978.978,0,0,1-.86-.5.923.923,0,0,1,.056-.974l1.925-2.748V6.664A4.805,4.805,0,0,1,6.038,1.99V.934a.962.962,0,0,1,1.924,0V1.99a4.8,4.8,0,0,1,3.944,4.674v3.428l1.926,2.748a.923.923,0,0,1,.055.974.978.978,0,0,1-.86.5Z" transform="translate(0 0.493)" fill="#fff"/>
      <g id="UI_System_Color_Green01-2" data-name="UI/System/Color/Green01" clip-path="url(#clip-path)">
        <g id="UI_System_Color_Green01-3" data-name="UI/System/Color/Green01" transform="translate(0 0.493)">
          <g id="UI_System_Color_Green01-4" data-name="UI/System/Color/Green01">
            <rect id="Rectangle" width="14" height="17" fill="#fff"/>
          </g>
        </g>
      </g>
    </g>
  </g>
</svg>
