<svg xmlns="http://www.w3.org/2000/svg" width="5" height="11.364" viewBox="0 0 5 11.364">
  <g id="right-chevron" transform="translate(5) rotate(90)">
    <g id="Group_3" data-name="Group 3" transform="translate(0)">
      <path id="Path" d="M3.281,2.211,1.017.122A.429.429,0,0,0,.7,0,.43.43,0,0,0,.392.122L.129.363A.379.379,0,0,0,0,.651.4.4,0,0,0,.129.943L1.816,2.5.128,4.06A.379.379,0,0,0,0,4.349a.4.4,0,0,0,.128.292l.264.241A.444.444,0,0,0,.7,5a.443.443,0,0,0,.312-.119L3.281,2.792A.4.4,0,0,0,3.409,2.5.379.379,0,0,0,3.281,2.211Z" transform="translate(7.955)" fill="#c7c7c7"/>
      <path id="Path_Copy" data-name="Path Copy" d="M.129,2.211,2.392.122a.461.461,0,0,1,.625,0l.264.241a.379.379,0,0,1,.128.289.4.4,0,0,1-.128.292L1.593,2.5,3.281,4.06a.379.379,0,0,1,.128.289.4.4,0,0,1-.128.292l-.264.241a.47.47,0,0,1-.625,0L.129,2.792A.4.4,0,0,1,0,2.5.379.379,0,0,1,.129,2.211Z" fill="#c7c7c7"/>
    </g>
  </g>
</svg>
