<svg xmlns="http://www.w3.org/2000/svg" width="44.976" height="44.976" viewBox="0 0 44.976 44.976">
  <g id="Group_4074" data-name="Group 4074" transform="translate(0.315 0.315)">
    <ellipse id="Oval-Copy-33_Copy_2" data-name="Oval-Copy-33 Copy 2" cx="22.173" cy="22.173" rx="22.173" ry="22.173" fill="#fff" stroke="#7b7b7b" stroke-miterlimit="10" stroke-width="0.63"/>
    <g id="_100571" data-name="100571" transform="translate(22.807 35.794) rotate(180)">
      <path id="Path" d="M1.7,7.591a6.31,6.31,0,0,1-.161-1.416A6.125,6.125,0,0,1,7.6,0a6.125,6.125,0,0,1,6.059,6.175A6.31,6.31,0,0,1,13.5,7.591a7.863,7.863,0,0,1-.008,9.787A7.607,7.607,0,0,1,9.21,20.053a.382.382,0,0,1-.454-.3.389.389,0,0,1,.293-.462,6.974,6.974,0,0,0,5.392-6.813,7.049,7.049,0,0,0-1.648-4.537.4.4,0,0,1-.079-.355A5.509,5.509,0,0,0,12.9,6.175,5.353,5.353,0,0,0,7.6.778a5.353,5.353,0,0,0-5.3,5.4A5.509,5.509,0,0,0,2.49,7.586a.4.4,0,0,1-.079.355A7.049,7.049,0,0,0,.764,12.479a6.852,6.852,0,0,0,5.993,6.813c.207.033.044.244,0,.454-.039.182.259.364.083.364-.027,0-.509-.06-.537-.066a8.385,8.385,0,0,1-4.591-2.666A7.863,7.863,0,0,1,1.7,7.591Z" transform="translate(15.204 23.124) rotate(180)" fill="#7b7b7b"/>
      <path id="Path-2" data-name="Path" d="M.1,6.971a.366.366,0,0,1,0-.511.351.351,0,0,1,.5,0L2.686,8.577V.362a.355.355,0,1,1,.71,0V5.588L5.475,3.471a.351.351,0,0,1,.5,0,.366.366,0,0,1,0,.511L3.4,6.611v9.816a.355.355,0,1,1-.71,0V9.6Z" transform="translate(11.15 16.788) rotate(180)" fill="#7b7b7b"/>
    </g>
    <path id="Path_51_Copy_4" data-name="Path 51 Copy 4" d="M.5.5H4.935" transform="translate(31.809 28.008)" fill="#7b7b7b" stroke="#7b7b7b" stroke-linecap="round" stroke-linejoin="round" stroke-miterlimit="10" stroke-width="0.63"/>
    <path id="Path_51_Copy_5" data-name="Path 51 Copy 5" d="M0,.5H4.716" transform="translate(21.892 28.008)" fill="#7b7b7b" stroke="#7b7b7b" stroke-linecap="round" stroke-linejoin="round" stroke-miterlimit="10" stroke-width="0.63"/>
    <path id="Path_51_Copy_2" data-name="Path 51 Copy 2" d="M4.426,5.306h5.8L13.344,2.3,10.231,0H0" transform="translate(36.744 36.15) rotate(-90)" fill="none" stroke="#7b7b7b" stroke-linecap="round" stroke-linejoin="round" stroke-miterlimit="10" stroke-width="0.63"/>
    <path id="Path_51_Copy_3" data-name="Path 51 Copy 3" d="M0,5.306H10.183L13.3,2.3,10.183,0H0" transform="translate(26.608 36.102) rotate(-90)" fill="none" stroke="#7b7b7b" stroke-linecap="round" stroke-linejoin="round" stroke-miterlimit="10" stroke-width="0.63"/>
    <path id="Path_51_Copy" data-name="Path 51 Copy" d="M.425.5,34.1.54" transform="translate(5.182 35.611)" fill="#7b7b7b" stroke="#7b7b7b" stroke-linecap="round" stroke-linejoin="round" stroke-miterlimit="10" stroke-width="0.63"/>
  </g>
</svg>
